<svg class="svg-icon" style="width: 1em; height: 1em;vertical-align: middle;fill: currentColor;overflow: hidden;" viewBox="0 0 1024 1024" version="1.1" xmlns="http://www.w3.org/2000/svg"><path d="M512 0c-282.76736 0-512 71.63904-512 160.01024l0 128c0 88.3712 229.23264 160.01024 512 160.01024s512-71.63904 512-160.01024l0-128c0-88.3712-229.23264-160.01024-512-160.01024z"  /><path d="M512 544.01024c-282.76736 0-512-71.63904-512-160.01024l0 192c0 88.3712 229.23264 160.01024 512 160.01024s512-71.63904 512-160.01024l0-192c0 88.3712-229.23264 160.01024-512 160.01024z"  /><path d="M512 832c-282.76736 0-512-71.63904-512-160.01024l0 192c0 88.3712 229.23264 160.01024 512 160.01024s512-71.63904 512-160.01024l0-192c0 88.3712-229.23264 160.01024-512 160.01024z"  /></svg>